<svg viewBox="0 0 17 24" xmlns="http://www.w3.org/2000/svg">
<path fill-rule="evenodd" clip-rule="evenodd" d="M5.2006 2.73219C5.16546 2.73262 5.10006 2.73976 4.99329 2.77143L4.98477 2.77396C4.19284 3.00116 3.60834 3.36211 3.15469 4.00207L3.14862 4.01063L3.14238 4.01905C2.6063 4.74226 2.37952 5.67351 2.45062 6.68102L2.45074 6.68262C2.49319 7.29805 2.57924 7.96885 2.7563 8.61603C3.98123 12.8311 6.01076 16.5562 8.82134 19.7592C9.39827 20.4093 10.1394 20.9837 10.8993 21.4291L10.9044 21.4321C11.938 22.0462 13.4646 21.7837 14.4361 20.725L14.4435 20.7169C14.687 20.4573 14.6842 20.3433 14.6832 20.3143C14.6809 20.25 14.6406 20.0327 14.2694 19.5933C13.9924 19.2762 13.6986 18.9775 13.3801 18.6542L13.3707 18.6447C13.0632 18.3325 12.7321 17.9964 12.4132 17.6318C12.0243 17.2154 11.7386 17.0335 11.5173 16.9677C11.3354 16.9135 11.087 16.904 10.674 17.1109C10.3217 17.2923 9.93495 17.4203 9.51941 17.4156C9.08186 17.4106 8.70767 17.2597 8.39648 17.04C8.10504 16.8341 7.868 16.5674 7.67098 16.3162C7.47941 16.0718 7.28391 15.7865 7.09003 15.5036L7.06454 15.4664L7.06017 15.4598C6.32072 14.344 5.89374 13.4586 5.63189 12.9157C5.5985 12.8464 5.56779 12.7828 5.53946 12.7249C5.14218 11.9446 4.76748 11.1541 4.73249 10.3708C4.69194 9.46283 5.09562 8.74561 5.75277 8.09485C5.86778 7.97243 6.01188 7.75382 6.12062 7.49381C6.23137 7.229 6.25978 7.03118 6.25542 6.94036C6.14433 6.04772 5.91448 5.22928 5.66533 4.34212C5.54553 3.91556 5.42128 3.4731 5.30361 2.99886C5.26354 2.84595 5.22358 2.76785 5.2006 2.73219ZM6.20126 0.996238C6.78393 1.34194 7.08293 1.93236 7.23425 2.51574L7.23701 2.52639C7.3235 2.8753 7.42826 3.24979 7.53799 3.6418C7.80834 4.60762 8.1085 5.67995 8.2377 6.73906L8.23979 6.75619L8.24129 6.77337C8.28821 7.30964 8.14048 7.85605 7.96012 8.28729C7.77521 8.7294 7.50486 9.17245 7.18616 9.504L7.17675 9.51379L7.16708 9.52331C6.74108 9.94272 6.71803 10.1495 6.72479 10.301C6.73727 10.5803 6.88734 10.9901 7.31616 11.8319L7.31971 11.8389L7.32316 11.8459C7.35517 11.9113 7.38889 11.9811 7.42476 12.0554C7.68358 12.5914 8.05493 13.3604 8.71192 14.3527C8.92265 14.6602 9.08372 14.8948 9.2322 15.0841C9.38322 15.2767 9.47722 15.3641 9.53155 15.4025C9.53424 15.4044 9.53664 15.406 9.53877 15.4075C9.56856 15.4016 9.63656 15.3828 9.75342 15.3224L9.76316 15.3173C10.5284 14.9323 11.2996 14.817 12.0654 15.0449C12.7903 15.2607 13.3773 15.7467 13.8741 16.2814L13.885 16.293L13.8955 16.3051C14.1739 16.6243 14.4693 16.9246 14.7897 17.2498L14.799 17.2593C15.1101 17.5751 15.4454 17.9154 15.7678 18.285L15.7725 18.2904L15.7772 18.2959C16.2745 18.8828 16.6506 19.5339 16.6763 20.2636C16.7031 21.0267 16.3415 21.63 15.9043 22.0972C14.4179 23.7136 11.89 24.3348 9.90573 23.1579C9.00021 22.6269 8.08209 21.9238 7.33726 21.0838L7.3338 21.0799C4.31866 17.6444 2.14592 13.6498 0.840253 9.15293L0.838196 9.14584L0.836242 9.13873C0.609918 8.31469 0.509207 7.4971 0.46121 6.80126C0.363784 5.41642 0.666886 3.99151 1.53291 2.81833C2.29757 1.74403 3.29767 1.1674 4.41571 0.845935C4.96516 0.683755 5.61231 0.646805 6.20126 0.996238Z" fill="#0AD9C6"/>
</svg>
